<svg xmlns="http://www.w3.org/2000/svg" viewBox="0 0 512 512">
  <rect width="512" height="512" rx="112" fill="#f8f4ec"/>
  <circle cx="144" cy="152" r="44" fill="#10b981"/>
  <circle cx="368" cy="152" r="44" fill="#ef4444"/>
  <path fill="#27231f" d="M128 210h256c35 0 64 29 64 64v52c0 52-42 94-94 94H158c-52 0-94-42-94-94v-52c0-35 29-64 64-64z"/>
  <path fill="#f8f4ec" d="M138 284h236c14 0 26 12 26 26v12c0 26-21 46-46 46H158c-25 0-46-20-46-46v-12c0-14 12-26 26-26z"/>
  <path fill="#27231f" d="M172 326c0-17 13-30 30-30h108c17 0 30 13 30 30s-13 30-30 30H202c-17 0-30-13-30-30z"/>
  <path fill="#10b981" d="M202 326c0-10 8-18 18-18h72c10 0 18 8 18 18s-8 18-18 18h-72c-10 0-18-8-18-18z"/>
</svg>
